<svg width="90" height="90" viewBox="0 0 90 90" fill="none" xmlns="http://www.w3.org/2000/svg">
<path d="M86.4001 51.8789C61.7116 39.9039 17.0911 46.0044 4.86011 51.8789C6.67211 60.2388 17.5441 85.3184 20.7151 85.3184C27.0571 87.3519 65.3356 87.1259 71.9041 85.3184C74.8033 85.3184 84.3616 61.5944 86.4001 51.8789Z" stroke="#E5DFD9" stroke-width="1.5"/>
<path d="M38.88 51.6597H52.2" stroke="#E5DFD9" stroke-width="1.5"/>
<path d="M32.3549 33.4104C37.1707 31.0226 40.2899 29.3289 42.3502 28.3804C43.3692 27.9112 44.0316 27.674 44.4543 27.6096C44.4529 27.6112 44.4519 27.6132 44.4504 27.6148C44.1454 27.9486 43.6382 28.3922 42.9406 28.9291C41.5544 29.9959 39.5262 31.3499 37.1605 32.8185C32.4335 35.7531 26.4265 39.1031 21.6751 41.459C16.8544 43.8492 12.607 46.6739 9.51006 48.6995C8.19958 49.5567 7.11551 50.2551 6.27536 50.7296C6.64399 50.3872 7.09174 49.9956 7.61349 49.5636C9.39509 48.0885 11.947 46.1926 14.8302 44.1858C20.6009 40.1692 27.6298 35.7532 32.3549 33.4104Z" stroke="#E5DFD9" stroke-width="1.5"/>
</svg>
