<svg width="86" height="62" viewBox="0 0 86 62" fill="none" xmlns="http://www.w3.org/2000/svg">
<path d="M84.4001 25.8789C59.7116 13.9039 15.0911 20.0044 2.86011 25.8789C4.67211 34.2388 15.5441 59.3184 18.7151 59.3184C25.0571 61.3519 63.3356 61.1259 69.9041 59.3184C72.8033 59.3184 82.3616 35.5944 84.4001 25.8789Z" stroke="#E5DFD9" stroke-width="1.5"/>
<path d="M36.88 25.6597H50.2" stroke="#E5DFD9" stroke-width="1.5"/>
<path d="M30.3549 7.41039C35.1707 5.02258 38.2899 3.32893 40.3502 2.38035C41.3692 1.9112 42.0316 1.67395 42.4543 1.60957C42.4529 1.61117 42.4519 1.61319 42.4504 1.6148C42.1454 1.94864 41.6382 2.39225 40.9406 2.92912C39.5544 3.99586 37.5262 5.34988 35.1605 6.81854C30.4335 9.75305 24.4265 13.1031 19.6751 15.459C14.8544 17.8492 10.607 20.6739 7.51006 22.6995C6.19958 23.5567 5.11551 24.2551 4.27536 24.7296C4.64399 24.3872 5.09174 23.9956 5.61349 23.5636C7.39509 22.0885 9.94697 20.1926 12.8302 18.1858C18.6009 14.1692 25.6298 9.75319 30.3549 7.41039Z" stroke="#E5DFD9" stroke-width="1.5"/>
</svg>
